<?xml version="1.0" encoding="utf-8"?>
<svg width="34px" height="34px" viewBox="0 0 1024 1024" data-aut-id="icon" class="" fill-rule="evenodd" xmlns="http://www.w3.org/2000/svg">
  <path class="rui-w4DG7" d="M256 128h597.333l42.667 42.667v213.333l-42.667 42.667h-42.667v170.667h85.333l42.667 42.667v213.333l-42.667 42.667h-682.667l-42.667-42.667v-170.667h-42.667l-42.667-42.667v-256l42.667-42.667h85.333v-170.667l42.667-42.667zM768 341.333h42.667v-128h-42.667v128zM426.667 341.333h256v-128h-256v128zM298.667 341.333h42.667v-128h-42.667v128zM682.667 597.333h42.667v-170.667h-42.667v170.667zM298.667 597.333h298.667v-170.667h-298.667v170.667zM170.667 597.333h42.667v-170.667h-42.667v170.667zM810.667 810.667h42.667v-128h-42.667v128zM384 810.667h341.333v-128h-341.333v128zM256 810.667h42.667v-128h-42.667v128z"/>
</svg>