<?xml version="1.0" encoding="utf-8"?>
<svg width="34px" height="34px" viewBox="0 0 1024 1024" data-aut-id="icon" class="" fill-rule="evenodd" xmlns="http://www.w3.org/2000/svg">
  <path class="rui-w4DG7" d="M170.667 426.667c47.061 0 85.333 38.272 85.333 85.333s-38.272 85.333-85.333 85.333-85.333-38.272-85.333-85.333 38.272-85.333 85.333-85.333zM512 426.667c47.061 0 85.333 38.272 85.333 85.333s-38.272 85.333-85.333 85.333-85.333-38.272-85.333-85.333 38.272-85.333 85.333-85.333zM853.333 426.667c47.061 0 85.333 38.272 85.333 85.333s-38.272 85.333-85.333 85.333-85.333-38.272-85.333-85.333 38.272-85.333 85.333-85.333z"/>
</svg>